<?xml version="1.0" encoding="UTF-8" standalone="no"?><svg xmlns="http://www.w3.org/2000/svg" xmlns:xlink="http://www.w3.org/1999/xlink" contentStyleType="text/css" height="1065px" preserveAspectRatio="none" style="width:1139px;height:1065px;background:#FFFFFF;" version="1.1" viewBox="0 0 1139 1065" width="1139px" zoomAndPan="magnify"><defs/><g><!--MD5=[ed6624c6556d5e7b1bd23032162d20b7]
class Client--><g id="elem_Client"><rect codeLine="7" fill="#F1F1F1" height="100.8281" id="Client" rx="2.5" ry="2.5" style="stroke:#181818;stroke-width:0.5;" width="260" x="872" y="7"/><ellipse cx="979.75" cy="23" fill="#ADD1B2" rx="11" ry="11" style="stroke:#181818;stroke-width:1.0;"/><path d="M982.5156,18.875 Q982.6719,18.6563 982.8594,18.5469 Q983.0469,18.4375 983.2656,18.4375 Q983.6406,18.4375 983.875,18.7031 Q984.1094,18.9531 984.1094,19.5625 L984.1094,21.0156 Q984.1094,21.625 983.875,21.8906 Q983.6406,22.1563 983.2656,22.1563 Q982.9219,22.1563 982.7188,21.9531 Q982.5156,21.7656 982.4063,21.25 Q982.3594,20.8906 982.1719,20.7031 Q981.8438,20.3281 981.2344,20.1094 Q980.625,19.8906 980,19.8906 Q979.2344,19.8906 978.5938,20.2188 Q977.9688,20.5469 977.4688,21.2969 Q976.9844,22.0469 976.9844,23.0781 L976.9844,24.1719 Q976.9844,25.4063 977.875,26.2344 Q978.7656,27.0469 980.3594,27.0469 Q981.2969,27.0469 981.9531,26.7969 Q982.3438,26.6406 982.7656,26.2031 Q983.0313,25.9375 983.1719,25.8594 Q983.3281,25.7813 983.5313,25.7813 Q983.8594,25.7813 984.1094,26.0469 Q984.375,26.2969 984.375,26.6406 Q984.375,26.9844 984.0313,27.3906 Q983.5313,27.9688 982.7344,28.2969 Q981.6563,28.75 980.3594,28.75 Q978.8438,28.75 977.6406,28.125 Q976.6563,27.625 975.9688,26.5625 Q975.2813,25.4844 975.2813,24.2031 L975.2813,23.0469 Q975.2813,21.7188 975.8906,20.5781 Q976.5156,19.4219 977.6094,18.8125 Q978.7031,18.1875 979.9375,18.1875 Q980.6719,18.1875 981.3125,18.3594 Q981.9688,18.5156 982.5156,18.875 Z " fill="#000000"/><text fill="#000000" font-family="sans-serif" font-size="14" lengthAdjust="spacing" textLength="36" x="1000.25" y="28.7285">Client</text><line style="stroke:#181818;stroke-width:0.5;" x1="873" x2="1131" y1="39" y2="39"/><line style="stroke:#181818;stroke-width:0.5;" x1="873" x2="1131" y1="47" y2="47"/><rect fill="#F24D5C" height="6" style="stroke:#C82930;stroke-width:1.0;" width="6" x="880" y="58.3047"/><text fill="#000000" font-family="sans-serif" font-size="14" lengthAdjust="spacing" textLength="166" x="892" y="65.5332">Socket connectToServer()</text><rect fill="#F24D5C" height="6" style="stroke:#C82930;stroke-width:1.0;" width="6" x="880" y="75.9141"/><text fill="#000000" font-family="sans-serif" font-size="14" lengthAdjust="spacing" textLength="123" x="892" y="83.1426">boolean authorize()</text><rect fill="#F24D5C" height="6" style="stroke:#C82930;stroke-width:1.0;" width="6" x="880" y="93.5234"/><text fill="#000000" font-family="sans-serif" font-size="14" lengthAdjust="spacing" textLength="234" x="892" y="100.752">String loopWaitingForWakeUpWord()</text></g><!--MD5=[24e140ece4e17a3aaf8c94955c10f8c2]
class SoundInput--><g id="elem_SoundInput"><rect codeLine="13" fill="#F1F1F1" height="83.2188" id="SoundInput" rx="2.5" ry="2.5" style="stroke:#181818;stroke-width:0.5;" width="186" x="489" y="382"/><ellipse cx="541.75" cy="398" fill="#ADD1B2" rx="11" ry="11" style="stroke:#181818;stroke-width:1.0;"/><path d="M544.5156,393.875 Q544.6719,393.6563 544.8594,393.5469 Q545.0469,393.4375 545.2656,393.4375 Q545.6406,393.4375 545.875,393.7031 Q546.1094,393.9531 546.1094,394.5625 L546.1094,396.0156 Q546.1094,396.625 545.875,396.8906 Q545.6406,397.1563 545.2656,397.1563 Q544.9219,397.1563 544.7188,396.9531 Q544.5156,396.7656 544.4063,396.25 Q544.3594,395.8906 544.1719,395.7031 Q543.8438,395.3281 543.2344,395.1094 Q542.625,394.8906 542,394.8906 Q541.2344,394.8906 540.5938,395.2188 Q539.9688,395.5469 539.4688,396.2969 Q538.9844,397.0469 538.9844,398.0781 L538.9844,399.1719 Q538.9844,400.4063 539.875,401.2344 Q540.7656,402.0469 542.3594,402.0469 Q543.2969,402.0469 543.9531,401.7969 Q544.3438,401.6406 544.7656,401.2031 Q545.0313,400.9375 545.1719,400.8594 Q545.3281,400.7813 545.5313,400.7813 Q545.8594,400.7813 546.1094,401.0469 Q546.375,401.2969 546.375,401.6406 Q546.375,401.9844 546.0313,402.3906 Q545.5313,402.9688 544.7344,403.2969 Q543.6563,403.75 542.3594,403.75 Q540.8438,403.75 539.6406,403.125 Q538.6563,402.625 537.9688,401.5625 Q537.2813,400.4844 537.2813,399.2031 L537.2813,398.0469 Q537.2813,396.7188 537.8906,395.5781 Q538.5156,394.4219 539.6094,393.8125 Q540.7031,393.1875 541.9375,393.1875 Q542.6719,393.1875 543.3125,393.3594 Q543.9688,393.5156 544.5156,393.875 Z " fill="#000000"/><text fill="#000000" font-family="sans-serif" font-size="14" lengthAdjust="spacing" textLength="72" x="562.25" y="403.7285">SoundInput</text><line style="stroke:#181818;stroke-width:0.5;" x1="490" x2="674" y1="414" y2="414"/><line style="stroke:#181818;stroke-width:0.5;" x1="490" x2="674" y1="422" y2="422"/><ellipse cx="500" cy="436.3047" fill="#84BE84" rx="3" ry="3" style="stroke:#038048;stroke-width:1.0;"/><text fill="#000000" font-family="sans-serif" font-size="14" lengthAdjust="spacing" textLength="160" x="509" y="440.5332">void listenWakeUpWord()</text><ellipse cx="500" cy="453.9141" fill="#84BE84" rx="3" ry="3" style="stroke:#038048;stroke-width:1.0;"/><text fill="#000000" font-family="sans-serif" font-size="14" lengthAdjust="spacing" textLength="141" x="509" y="458.1426">String speechToText()</text></g><!--MD5=[50d4997affe4b7e1b12b08ba12feba96]
class Chat--><g id="elem_Chat"><rect codeLine="18" fill="#F1F1F1" height="83.2188" id="Chat" rx="2.5" ry="2.5" style="stroke:#181818;stroke-width:0.5;" width="139" x="560.5" y="495"/><ellipse cx="610.75" cy="511" fill="#ADD1B2" rx="11" ry="11" style="stroke:#181818;stroke-width:1.0;"/><path d="M613.5156,506.875 Q613.6719,506.6563 613.8594,506.5469 Q614.0469,506.4375 614.2656,506.4375 Q614.6406,506.4375 614.875,506.7031 Q615.1094,506.9531 615.1094,507.5625 L615.1094,509.0156 Q615.1094,509.625 614.875,509.8906 Q614.6406,510.1563 614.2656,510.1563 Q613.9219,510.1563 613.7188,509.9531 Q613.5156,509.7656 613.4063,509.25 Q613.3594,508.8906 613.1719,508.7031 Q612.8438,508.3281 612.2344,508.1094 Q611.625,507.8906 611,507.8906 Q610.2344,507.8906 609.5938,508.2188 Q608.9688,508.5469 608.4688,509.2969 Q607.9844,510.0469 607.9844,511.0781 L607.9844,512.1719 Q607.9844,513.4063 608.875,514.2344 Q609.7656,515.0469 611.3594,515.0469 Q612.2969,515.0469 612.9531,514.7969 Q613.3438,514.6406 613.7656,514.2031 Q614.0313,513.9375 614.1719,513.8594 Q614.3281,513.7813 614.5313,513.7813 Q614.8594,513.7813 615.1094,514.0469 Q615.375,514.2969 615.375,514.6406 Q615.375,514.9844 615.0313,515.3906 Q614.5313,515.9688 613.7344,516.2969 Q612.6563,516.75 611.3594,516.75 Q609.8438,516.75 608.6406,516.125 Q607.6563,515.625 606.9688,514.5625 Q606.2813,513.4844 606.2813,512.2031 L606.2813,511.0469 Q606.2813,509.7188 606.8906,508.5781 Q607.5156,507.4219 608.6094,506.8125 Q609.7031,506.1875 610.9375,506.1875 Q611.6719,506.1875 612.3125,506.3594 Q612.9688,506.5156 613.5156,506.875 Z " fill="#000000"/><text fill="#000000" font-family="sans-serif" font-size="14" lengthAdjust="spacing" textLength="30" x="631.25" y="516.7285">Chat</text><line style="stroke:#181818;stroke-width:0.5;" x1="561.5" x2="698.5" y1="527" y2="527"/><line style="stroke:#181818;stroke-width:0.5;" x1="561.5" x2="698.5" y1="535" y2="535"/><ellipse cx="571.5" cy="549.3047" fill="#84BE84" rx="3" ry="3" style="stroke:#038048;stroke-width:1.0;"/><text fill="#000000" font-family="sans-serif" font-size="14" lengthAdjust="spacing" textLength="113" x="580.5" y="553.5332">void receiveText()</text><ellipse cx="571.5" cy="566.9141" fill="#84BE84" rx="3" ry="3" style="stroke:#038048;stroke-width:1.0;"/><text fill="#000000" font-family="sans-serif" font-size="14" lengthAdjust="spacing" textLength="98" x="580.5" y="571.1426">void sendText()</text></g><!--MD5=[093ed4082292ecbe1c7f4622f4555adf]
class Commands--><g id="elem_Commands"><rect codeLine="24" fill="#F1F1F1" height="65.6094" id="Commands" rx="2.5" ry="2.5" style="stroke:#181818;stroke-width:0.5;" width="159" x="729.5" y="503.5"/><ellipse cx="769.7" cy="519.5" fill="#ADD1B2" rx="11" ry="11" style="stroke:#181818;stroke-width:1.0;"/><path d="M772.4656,515.375 Q772.6219,515.1563 772.8094,515.0469 Q772.9969,514.9375 773.2156,514.9375 Q773.5906,514.9375 773.825,515.2031 Q774.0594,515.4531 774.0594,516.0625 L774.0594,517.5156 Q774.0594,518.125 773.825,518.3906 Q773.5906,518.6563 773.2156,518.6563 Q772.8719,518.6563 772.6688,518.4531 Q772.4656,518.2656 772.3563,517.75 Q772.3094,517.3906 772.1219,517.2031 Q771.7938,516.8281 771.1844,516.6094 Q770.575,516.3906 769.95,516.3906 Q769.1844,516.3906 768.5438,516.7188 Q767.9188,517.0469 767.4188,517.7969 Q766.9344,518.5469 766.9344,519.5781 L766.9344,520.6719 Q766.9344,521.9063 767.825,522.7344 Q768.7156,523.5469 770.3094,523.5469 Q771.2469,523.5469 771.9031,523.2969 Q772.2938,523.1406 772.7156,522.7031 Q772.9813,522.4375 773.1219,522.3594 Q773.2781,522.2813 773.4813,522.2813 Q773.8094,522.2813 774.0594,522.5469 Q774.325,522.7969 774.325,523.1406 Q774.325,523.4844 773.9813,523.8906 Q773.4813,524.4688 772.6844,524.7969 Q771.6063,525.25 770.3094,525.25 Q768.7938,525.25 767.5906,524.625 Q766.6063,524.125 765.9188,523.0625 Q765.2313,521.9844 765.2313,520.7031 L765.2313,519.5469 Q765.2313,518.2188 765.8406,517.0781 Q766.4656,515.9219 767.5594,515.3125 Q768.6531,514.6875 769.8875,514.6875 Q770.6219,514.6875 771.2625,514.8594 Q771.9188,515.0156 772.4656,515.375 Z " fill="#000000"/><text fill="#000000" font-family="sans-serif" font-size="14" lengthAdjust="spacing" textLength="71" x="789.3" y="525.2285">Commands</text><line style="stroke:#181818;stroke-width:0.5;" x1="730.5" x2="887.5" y1="535.5" y2="535.5"/><line style="stroke:#181818;stroke-width:0.5;" x1="730.5" x2="887.5" y1="543.5" y2="543.5"/><ellipse cx="740.5" cy="557.8047" fill="#84BE84" rx="3" ry="3" style="stroke:#038048;stroke-width:1.0;"/><text fill="#000000" font-family="sans-serif" font-size="14" lengthAdjust="spacing" textLength="133" x="749.5" y="562.0332">void hearCommand()</text></g><!--MD5=[0ce2b67b3b1e0f5022efad6226816bf5]
class ServerUtils--><g id="elem_ServerUtils"><rect codeLine="109" fill="#F1F1F1" height="83.2188" id="ServerUtils" rx="2.5" ry="2.5" style="stroke:#181818;stroke-width:0.5;" width="166" x="450" y="16"/><ellipse cx="494.75" cy="32" fill="#ADD1B2" rx="11" ry="11" style="stroke:#181818;stroke-width:1.0;"/><path d="M497.5156,27.875 Q497.6719,27.6563 497.8594,27.5469 Q498.0469,27.4375 498.2656,27.4375 Q498.6406,27.4375 498.875,27.7031 Q499.1094,27.9531 499.1094,28.5625 L499.1094,30.0156 Q499.1094,30.625 498.875,30.8906 Q498.6406,31.1563 498.2656,31.1563 Q497.9219,31.1563 497.7188,30.9531 Q497.5156,30.7656 497.4063,30.25 Q497.3594,29.8906 497.1719,29.7031 Q496.8438,29.3281 496.2344,29.1094 Q495.625,28.8906 495,28.8906 Q494.2344,28.8906 493.5938,29.2188 Q492.9688,29.5469 492.4688,30.2969 Q491.9844,31.0469 491.9844,32.0781 L491.9844,33.1719 Q491.9844,34.4063 492.875,35.2344 Q493.7656,36.0469 495.3594,36.0469 Q496.2969,36.0469 496.9531,35.7969 Q497.3438,35.6406 497.7656,35.2031 Q498.0313,34.9375 498.1719,34.8594 Q498.3281,34.7813 498.5313,34.7813 Q498.8594,34.7813 499.1094,35.0469 Q499.375,35.2969 499.375,35.6406 Q499.375,35.9844 499.0313,36.3906 Q498.5313,36.9688 497.7344,37.2969 Q496.6563,37.75 495.3594,37.75 Q493.8438,37.75 492.6406,37.125 Q491.6563,36.625 490.9688,35.5625 Q490.2813,34.4844 490.2813,33.2031 L490.2813,32.0469 Q490.2813,30.7188 490.8906,29.5781 Q491.5156,28.4219 492.6094,27.8125 Q493.7031,27.1875 494.9375,27.1875 Q495.6719,27.1875 496.3125,27.3594 Q496.9688,27.5156 497.5156,27.875 Z " fill="#000000"/><text fill="#000000" font-family="sans-serif" font-size="14" lengthAdjust="spacing" textLength="68" x="515.25" y="37.7285">ServerUtils</text><line style="stroke:#181818;stroke-width:0.5;" x1="451" x2="615" y1="48" y2="48"/><line style="stroke:#181818;stroke-width:0.5;" x1="451" x2="615" y1="56" y2="56"/><ellipse cx="461" cy="70.3047" fill="#84BE84" rx="3" ry="3" style="stroke:#038048;stroke-width:1.0;"/><text fill="#000000" font-family="sans-serif" font-size="14" lengthAdjust="spacing" textLength="140" x="470" y="74.5332">String receivePacket()</text><ellipse cx="461" cy="87.9141" fill="#84BE84" rx="3" ry="3" style="stroke:#038048;stroke-width:1.0;"/><text fill="#000000" font-family="sans-serif" font-size="14" lengthAdjust="spacing" textLength="121" x="470" y="92.1426">sendPacket(String)</text></g><!--MD5=[f8dbe852789f6b924c8219364c6d35e7]
class Weather--><g id="elem_Weather"><rect codeLine="33" fill="#F1F1F1" height="48" id="Weather" rx="2.5" ry="2.5" style="stroke:#181818;stroke-width:0.5;" width="86" x="981" y="669.5"/><ellipse cx="996" cy="685.5" fill="#ADD1B2" rx="11" ry="11" style="stroke:#181818;stroke-width:1.0;"/><path d="M998.7656,681.375 Q998.9219,681.1563 999.1094,681.0469 Q999.2969,680.9375 999.5156,680.9375 Q999.8906,680.9375 1000.125,681.2031 Q1000.3594,681.4531 1000.3594,682.0625 L1000.3594,683.5156 Q1000.3594,684.125 1000.125,684.3906 Q999.8906,684.6563 999.5156,684.6563 Q999.1719,684.6563 998.9688,684.4531 Q998.7656,684.2656 998.6563,683.75 Q998.6094,683.3906 998.4219,683.2031 Q998.0938,682.8281 997.4844,682.6094 Q996.875,682.3906 996.25,682.3906 Q995.4844,682.3906 994.8438,682.7188 Q994.2188,683.0469 993.7188,683.7969 Q993.2344,684.5469 993.2344,685.5781 L993.2344,686.6719 Q993.2344,687.9063 994.125,688.7344 Q995.0156,689.5469 996.6094,689.5469 Q997.5469,689.5469 998.2031,689.2969 Q998.5938,689.1406 999.0156,688.7031 Q999.2813,688.4375 999.4219,688.3594 Q999.5781,688.2813 999.7813,688.2813 Q1000.1094,688.2813 1000.3594,688.5469 Q1000.625,688.7969 1000.625,689.1406 Q1000.625,689.4844 1000.2813,689.8906 Q999.7813,690.4688 998.9844,690.7969 Q997.9063,691.25 996.6094,691.25 Q995.0938,691.25 993.8906,690.625 Q992.9063,690.125 992.2188,689.0625 Q991.5313,687.9844 991.5313,686.7031 L991.5313,685.5469 Q991.5313,684.2188 992.1406,683.0781 Q992.7656,681.9219 993.8594,681.3125 Q994.9531,680.6875 996.1875,680.6875 Q996.9219,680.6875 997.5625,680.8594 Q998.2188,681.0156 998.7656,681.375 Z " fill="#000000"/><text fill="#000000" font-family="sans-serif" font-size="14" lengthAdjust="spacing" textLength="54" x="1010" y="691.2285">Weather</text><line style="stroke:#181818;stroke-width:0.5;" x1="982" x2="1066" y1="701.5" y2="701.5"/><line style="stroke:#181818;stroke-width:0.5;" x1="982" x2="1066" y1="709.5" y2="709.5"/></g><!--MD5=[3745fdd22a0e66a0d468b66995ac78bf]
class AccuWeatherAPI--><g id="elem_AccuWeatherAPI"><rect codeLine="34" fill="#F1F1F1" height="100.8281" id="AccuWeatherAPI" rx="2.5" ry="2.5" style="stroke:#181818;stroke-width:0.5;" width="192" x="831" y="844"/><ellipse cx="870.3" cy="860" fill="#ADD1B2" rx="11" ry="11" style="stroke:#181818;stroke-width:1.0;"/><path d="M873.0656,855.875 Q873.2219,855.6563 873.4094,855.5469 Q873.5969,855.4375 873.8156,855.4375 Q874.1906,855.4375 874.425,855.7031 Q874.6594,855.9531 874.6594,856.5625 L874.6594,858.0156 Q874.6594,858.625 874.425,858.8906 Q874.1906,859.1563 873.8156,859.1563 Q873.4719,859.1563 873.2688,858.9531 Q873.0656,858.7656 872.9563,858.25 Q872.9094,857.8906 872.7219,857.7031 Q872.3938,857.3281 871.7844,857.1094 Q871.175,856.8906 870.55,856.8906 Q869.7844,856.8906 869.1438,857.2188 Q868.5188,857.5469 868.0188,858.2969 Q867.5344,859.0469 867.5344,860.0781 L867.5344,861.1719 Q867.5344,862.4063 868.425,863.2344 Q869.3156,864.0469 870.9094,864.0469 Q871.8469,864.0469 872.5031,863.7969 Q872.8938,863.6406 873.3156,863.2031 Q873.5813,862.9375 873.7219,862.8594 Q873.8781,862.7813 874.0813,862.7813 Q874.4094,862.7813 874.6594,863.0469 Q874.925,863.2969 874.925,863.6406 Q874.925,863.9844 874.5813,864.3906 Q874.0813,864.9688 873.2844,865.2969 Q872.2063,865.75 870.9094,865.75 Q869.3938,865.75 868.1906,865.125 Q867.2063,864.625 866.5188,863.5625 Q865.8313,862.4844 865.8313,861.2031 L865.8313,860.0469 Q865.8313,858.7188 866.4406,857.5781 Q867.0656,856.4219 868.1594,855.8125 Q869.2531,855.1875 870.4875,855.1875 Q871.2219,855.1875 871.8625,855.3594 Q872.5188,855.5156 873.0656,855.875 Z " fill="#000000"/><text fill="#000000" font-family="sans-serif" font-size="14" lengthAdjust="spacing" textLength="106" x="889.7" y="865.7285">AccuWeatherAPI</text><line style="stroke:#181818;stroke-width:0.5;" x1="832" x2="1022" y1="876" y2="876"/><line style="stroke:#181818;stroke-width:0.5;" x1="832" x2="1022" y1="884" y2="884"/><ellipse cx="842" cy="898.3047" fill="#84BE84" rx="3" ry="3" style="stroke:#038048;stroke-width:1.0;"/><text fill="#000000" font-family="sans-serif" font-size="14" lengthAdjust="spacing" textLength="166" x="851" y="902.5332">String sendWeatherData()</text><rect fill="#F24D5C" height="6" style="stroke:#C82930;stroke-width:1.0;" width="6" x="839" y="912.9141"/><text fill="#000000" font-family="sans-serif" font-size="14" lengthAdjust="spacing" textLength="125" x="851" y="920.1426">void fetchLocation()</text><rect fill="#F24D5C" height="6" style="stroke:#C82930;stroke-width:1.0;" width="6" x="839" y="930.5234"/><text fill="#000000" font-family="sans-serif" font-size="14" lengthAdjust="spacing" textLength="155" x="851" y="937.752">void fetchWeatherData()</text></g><!--MD5=[663282962508392352bdaf2cfa534d05]
class SoundOutput--><g id="elem_SoundOutput"><rect codeLine="132" fill="#F1F1F1" height="48" id="SoundOutput" rx="2.5" ry="2.5" style="stroke:#181818;stroke-width:0.5;" width="116" x="197" y="1010"/><ellipse cx="212" cy="1026" fill="#ADD1B2" rx="11" ry="11" style="stroke:#181818;stroke-width:1.0;"/><path d="M214.7656,1021.875 Q214.9219,1021.6563 215.1094,1021.5469 Q215.2969,1021.4375 215.5156,1021.4375 Q215.8906,1021.4375 216.125,1021.7031 Q216.3594,1021.9531 216.3594,1022.5625 L216.3594,1024.0156 Q216.3594,1024.625 216.125,1024.8906 Q215.8906,1025.1563 215.5156,1025.1563 Q215.1719,1025.1563 214.9688,1024.9531 Q214.7656,1024.7656 214.6563,1024.25 Q214.6094,1023.8906 214.4219,1023.7031 Q214.0938,1023.3281 213.4844,1023.1094 Q212.875,1022.8906 212.25,1022.8906 Q211.4844,1022.8906 210.8438,1023.2188 Q210.2188,1023.5469 209.7188,1024.2969 Q209.2344,1025.0469 209.2344,1026.0781 L209.2344,1027.1719 Q209.2344,1028.4063 210.125,1029.2344 Q211.0156,1030.0469 212.6094,1030.0469 Q213.5469,1030.0469 214.2031,1029.7969 Q214.5938,1029.6406 215.0156,1029.2031 Q215.2813,1028.9375 215.4219,1028.8594 Q215.5781,1028.7813 215.7813,1028.7813 Q216.1094,1028.7813 216.3594,1029.0469 Q216.625,1029.2969 216.625,1029.6406 Q216.625,1029.9844 216.2813,1030.3906 Q215.7813,1030.9688 214.9844,1031.2969 Q213.9063,1031.75 212.6094,1031.75 Q211.0938,1031.75 209.8906,1031.125 Q208.9063,1030.625 208.2188,1029.5625 Q207.5313,1028.4844 207.5313,1027.2031 L207.5313,1026.0469 Q207.5313,1024.7188 208.1406,1023.5781 Q208.7656,1022.4219 209.8594,1021.8125 Q210.9531,1021.1875 212.1875,1021.1875 Q212.9219,1021.1875 213.5625,1021.3594 Q214.2188,1021.5156 214.7656,1021.875 Z " fill="#000000"/><text fill="#000000" font-family="sans-serif" font-size="14" lengthAdjust="spacing" textLength="84" x="226" y="1031.7285">SoundOutput</text><line style="stroke:#181818;stroke-width:0.5;" x1="198" x2="312" y1="1042" y2="1042"/><line style="stroke:#181818;stroke-width:0.5;" x1="198" x2="312" y1="1050" y2="1050"/></g><!--MD5=[1ce39445860496db20ab3bb656f84ed9]
class Notes--><g id="elem_Notes"><rect codeLine="45" fill="#F1F1F1" height="118.4375" id="Notes" rx="2.5" ry="2.5" style="stroke:#181818;stroke-width:0.5;" width="207" x="610.5" y="138"/><ellipse cx="691.75" cy="154" fill="#ADD1B2" rx="11" ry="11" style="stroke:#181818;stroke-width:1.0;"/><path d="M694.5156,149.875 Q694.6719,149.6563 694.8594,149.5469 Q695.0469,149.4375 695.2656,149.4375 Q695.6406,149.4375 695.875,149.7031 Q696.1094,149.9531 696.1094,150.5625 L696.1094,152.0156 Q696.1094,152.625 695.875,152.8906 Q695.6406,153.1563 695.2656,153.1563 Q694.9219,153.1563 694.7188,152.9531 Q694.5156,152.7656 694.4063,152.25 Q694.3594,151.8906 694.1719,151.7031 Q693.8438,151.3281 693.2344,151.1094 Q692.625,150.8906 692,150.8906 Q691.2344,150.8906 690.5938,151.2188 Q689.9688,151.5469 689.4688,152.2969 Q688.9844,153.0469 688.9844,154.0781 L688.9844,155.1719 Q688.9844,156.4063 689.875,157.2344 Q690.7656,158.0469 692.3594,158.0469 Q693.2969,158.0469 693.9531,157.7969 Q694.3438,157.6406 694.7656,157.2031 Q695.0313,156.9375 695.1719,156.8594 Q695.3281,156.7813 695.5313,156.7813 Q695.8594,156.7813 696.1094,157.0469 Q696.375,157.2969 696.375,157.6406 Q696.375,157.9844 696.0313,158.3906 Q695.5313,158.9688 694.7344,159.2969 Q693.6563,159.75 692.3594,159.75 Q690.8438,159.75 689.6406,159.125 Q688.6563,158.625 687.9688,157.5625 Q687.2813,156.4844 687.2813,155.2031 L687.2813,154.0469 Q687.2813,152.7188 687.8906,151.5781 Q688.5156,150.4219 689.6094,149.8125 Q690.7031,149.1875 691.9375,149.1875 Q692.6719,149.1875 693.3125,149.3594 Q693.9688,149.5156 694.5156,149.875 Z " fill="#000000"/><text fill="#000000" font-family="sans-serif" font-size="14" lengthAdjust="spacing" textLength="36" x="712.25" y="159.7285">Notes</text><line style="stroke:#181818;stroke-width:0.5;" x1="611.5" x2="816.5" y1="170" y2="170"/><line style="stroke:#181818;stroke-width:0.5;" x1="611.5" x2="816.5" y1="178" y2="178"/><ellipse cx="621.5" cy="192.3047" fill="#84BE84" rx="3" ry="3" style="stroke:#038048;stroke-width:1.0;"/><text fill="#000000" font-family="sans-serif" font-size="14" lengthAdjust="spacing" textLength="181" x="630.5" y="196.5332">ArrayList&lt;String&gt; ListNotes()</text><ellipse cx="621.5" cy="209.9141" fill="#84BE84" rx="3" ry="3" style="stroke:#038048;stroke-width:1.0;"/><text fill="#000000" font-family="sans-serif" font-size="14" lengthAdjust="spacing" textLength="93" x="630.5" y="214.1426">void addNote()</text><ellipse cx="621.5" cy="227.5234" fill="#84BE84" rx="3" ry="3" style="stroke:#038048;stroke-width:1.0;"/><text fill="#000000" font-family="sans-serif" font-size="14" lengthAdjust="spacing" textLength="108" x="630.5" y="231.752">void deleteNote()</text><ellipse cx="621.5" cy="245.1328" fill="#84BE84" rx="3" ry="3" style="stroke:#038048;stroke-width:1.0;"/><text fill="#000000" font-family="sans-serif" font-size="14" lengthAdjust="spacing" textLength="103" x="630.5" y="249.3613">File selectNote()</text></g><!--MD5=[85a19f5f320d7b2a095b503f9e6c4011]
class WriteNote--><g id="elem_WriteNote"><rect codeLine="52" fill="#F1F1F1" height="65.6094" id="WriteNote" rx="2.5" ry="2.5" style="stroke:#181818;stroke-width:0.5;" width="183" x="579.5" y="286"/><ellipse cx="635.75" cy="302" fill="#ADD1B2" rx="11" ry="11" style="stroke:#181818;stroke-width:1.0;"/><path d="M638.5156,297.875 Q638.6719,297.6563 638.8594,297.5469 Q639.0469,297.4375 639.2656,297.4375 Q639.6406,297.4375 639.875,297.7031 Q640.1094,297.9531 640.1094,298.5625 L640.1094,300.0156 Q640.1094,300.625 639.875,300.8906 Q639.6406,301.1563 639.2656,301.1563 Q638.9219,301.1563 638.7188,300.9531 Q638.5156,300.7656 638.4063,300.25 Q638.3594,299.8906 638.1719,299.7031 Q637.8438,299.3281 637.2344,299.1094 Q636.625,298.8906 636,298.8906 Q635.2344,298.8906 634.5938,299.2188 Q633.9688,299.5469 633.4688,300.2969 Q632.9844,301.0469 632.9844,302.0781 L632.9844,303.1719 Q632.9844,304.4063 633.875,305.2344 Q634.7656,306.0469 636.3594,306.0469 Q637.2969,306.0469 637.9531,305.7969 Q638.3438,305.6406 638.7656,305.2031 Q639.0313,304.9375 639.1719,304.8594 Q639.3281,304.7813 639.5313,304.7813 Q639.8594,304.7813 640.1094,305.0469 Q640.375,305.2969 640.375,305.6406 Q640.375,305.9844 640.0313,306.3906 Q639.5313,306.9688 638.7344,307.2969 Q637.6563,307.75 636.3594,307.75 Q634.8438,307.75 633.6406,307.125 Q632.6563,306.625 631.9688,305.5625 Q631.2813,304.4844 631.2813,303.2031 L631.2813,302.0469 Q631.2813,300.7188 631.8906,299.5781 Q632.5156,298.4219 633.6094,297.8125 Q634.7031,297.1875 635.9375,297.1875 Q636.6719,297.1875 637.3125,297.3594 Q637.9688,297.5156 638.5156,297.875 Z " fill="#000000"/><text fill="#000000" font-family="sans-serif" font-size="14" lengthAdjust="spacing" textLength="62" x="656.25" y="307.7285">WriteNote</text><line style="stroke:#181818;stroke-width:0.5;" x1="580.5" x2="761.5" y1="318" y2="318"/><line style="stroke:#181818;stroke-width:0.5;" x1="580.5" x2="761.5" y1="326" y2="326"/><ellipse cx="590.5" cy="340.3047" fill="#84BE84" rx="3" ry="3" style="stroke:#038048;stroke-width:1.0;"/><text fill="#000000" font-family="sans-serif" font-size="14" lengthAdjust="spacing" textLength="157" x="599.5" y="344.5332">void appendToNote(File)</text></g><!--MD5=[2c2afd35ac6a387ff6f250cd0b361c5f]
class ReadNote--><g id="elem_ReadNote"><rect codeLine="55" fill="#F1F1F1" height="65.6094" id="ReadNote" rx="2.5" ry="2.5" style="stroke:#181818;stroke-width:0.5;" width="124" x="287" y="390.5"/><ellipse cx="315.05" cy="406.5" fill="#ADD1B2" rx="11" ry="11" style="stroke:#181818;stroke-width:1.0;"/><path d="M317.8156,402.375 Q317.9719,402.1563 318.1594,402.0469 Q318.3469,401.9375 318.5656,401.9375 Q318.9406,401.9375 319.175,402.2031 Q319.4094,402.4531 319.4094,403.0625 L319.4094,404.5156 Q319.4094,405.125 319.175,405.3906 Q318.9406,405.6563 318.5656,405.6563 Q318.2219,405.6563 318.0188,405.4531 Q317.8156,405.2656 317.7063,404.75 Q317.6594,404.3906 317.4719,404.2031 Q317.1438,403.8281 316.5344,403.6094 Q315.925,403.3906 315.3,403.3906 Q314.5344,403.3906 313.8938,403.7188 Q313.2688,404.0469 312.7688,404.7969 Q312.2844,405.5469 312.2844,406.5781 L312.2844,407.6719 Q312.2844,408.9063 313.175,409.7344 Q314.0656,410.5469 315.6594,410.5469 Q316.5969,410.5469 317.2531,410.2969 Q317.6438,410.1406 318.0656,409.7031 Q318.3313,409.4375 318.4719,409.3594 Q318.6281,409.2813 318.8313,409.2813 Q319.1594,409.2813 319.4094,409.5469 Q319.675,409.7969 319.675,410.1406 Q319.675,410.4844 319.3313,410.8906 Q318.8313,411.4688 318.0344,411.7969 Q316.9563,412.25 315.6594,412.25 Q314.1438,412.25 312.9406,411.625 Q311.9563,411.125 311.2688,410.0625 Q310.5813,408.9844 310.5813,407.7031 L310.5813,406.5469 Q310.5813,405.2188 311.1906,404.0781 Q311.8156,402.9219 312.9094,402.3125 Q314.0031,401.6875 315.2375,401.6875 Q315.9719,401.6875 316.6125,401.8594 Q317.2688,402.0156 317.8156,402.375 Z " fill="#000000"/><text fill="#000000" font-family="sans-serif" font-size="14" lengthAdjust="spacing" textLength="63" x="331.95" y="412.2285">ReadNote</text><line style="stroke:#181818;stroke-width:0.5;" x1="288" x2="410" y1="422.5" y2="422.5"/><line style="stroke:#181818;stroke-width:0.5;" x1="288" x2="410" y1="430.5" y2="430.5"/><ellipse cx="298" cy="444.8047" fill="#84BE84" rx="3" ry="3" style="stroke:#038048;stroke-width:1.0;"/><text fill="#000000" font-family="sans-serif" font-size="14" lengthAdjust="spacing" textLength="98" x="307" y="449.0332">void readNote()</text></g><!--MD5=[cfc376b34c47317f714b23e021b15070]
class MusicPlayer--><g id="elem_MusicPlayer"><rect codeLine="66" fill="#F1F1F1" height="171.2656" id="MusicPlayer" rx="2.5" ry="2.5" style="stroke:#181818;stroke-width:0.5;" width="153" x="599.5" y="809"/><ellipse cx="634.75" cy="825" fill="#ADD1B2" rx="11" ry="11" style="stroke:#181818;stroke-width:1.0;"/><path d="M637.5156,820.875 Q637.6719,820.6563 637.8594,820.5469 Q638.0469,820.4375 638.2656,820.4375 Q638.6406,820.4375 638.875,820.7031 Q639.1094,820.9531 639.1094,821.5625 L639.1094,823.0156 Q639.1094,823.625 638.875,823.8906 Q638.6406,824.1563 638.2656,824.1563 Q637.9219,824.1563 637.7188,823.9531 Q637.5156,823.7656 637.4063,823.25 Q637.3594,822.8906 637.1719,822.7031 Q636.8438,822.3281 636.2344,822.1094 Q635.625,821.8906 635,821.8906 Q634.2344,821.8906 633.5938,822.2188 Q632.9688,822.5469 632.4688,823.2969 Q631.9844,824.0469 631.9844,825.0781 L631.9844,826.1719 Q631.9844,827.4063 632.875,828.2344 Q633.7656,829.0469 635.3594,829.0469 Q636.2969,829.0469 636.9531,828.7969 Q637.3438,828.6406 637.7656,828.2031 Q638.0313,827.9375 638.1719,827.8594 Q638.3281,827.7813 638.5313,827.7813 Q638.8594,827.7813 639.1094,828.0469 Q639.375,828.2969 639.375,828.6406 Q639.375,828.9844 639.0313,829.3906 Q638.5313,829.9688 637.7344,830.2969 Q636.6563,830.75 635.3594,830.75 Q633.8438,830.75 632.6406,830.125 Q631.6563,829.625 630.9688,828.5625 Q630.2813,827.4844 630.2813,826.2031 L630.2813,825.0469 Q630.2813,823.7188 630.8906,822.5781 Q631.5156,821.4219 632.6094,820.8125 Q633.7031,820.1875 634.9375,820.1875 Q635.6719,820.1875 636.3125,820.3594 Q636.9688,820.5156 637.5156,820.875 Z " fill="#000000"/><text fill="#000000" font-family="sans-serif" font-size="14" lengthAdjust="spacing" textLength="76" x="653.25" y="830.7285">MusicPlayer</text><line style="stroke:#181818;stroke-width:0.5;" x1="600.5" x2="751.5" y1="841" y2="841"/><line style="stroke:#181818;stroke-width:0.5;" x1="600.5" x2="751.5" y1="849" y2="849"/><ellipse cx="610.5" cy="863.3047" fill="#84BE84" rx="3" ry="3" style="stroke:#038048;stroke-width:1.0;"/><text fill="#000000" font-family="sans-serif" font-size="14" lengthAdjust="spacing" textLength="97" x="619.5" y="867.5332">void ffplay(File)</text><ellipse cx="610.5" cy="880.9141" fill="#84BE84" rx="3" ry="3" style="stroke:#038048;stroke-width:1.0;"/><text fill="#000000" font-family="sans-serif" font-size="14" lengthAdjust="spacing" textLength="118" x="619.5" y="885.1426">void raiseVolume()</text><ellipse cx="610.5" cy="898.5234" fill="#84BE84" rx="3" ry="3" style="stroke:#038048;stroke-width:1.0;"/><text fill="#000000" font-family="sans-serif" font-size="14" lengthAdjust="spacing" textLength="120" x="619.5" y="902.752">void lowerVolume()</text><ellipse cx="610.5" cy="916.1328" fill="#84BE84" rx="3" ry="3" style="stroke:#038048;stroke-width:1.0;"/><text fill="#000000" font-family="sans-serif" font-size="14" lengthAdjust="spacing" textLength="99" x="619.5" y="920.3613">void nextSong()</text><ellipse cx="610.5" cy="933.7422" fill="#84BE84" rx="3" ry="3" style="stroke:#038048;stroke-width:1.0;"/><text fill="#000000" font-family="sans-serif" font-size="14" lengthAdjust="spacing" textLength="127" x="619.5" y="937.9707">void previousSong()</text><ellipse cx="610.5" cy="951.3516" fill="#84BE84" rx="3" ry="3" style="stroke:#038048;stroke-width:1.0;"/><text fill="#000000" font-family="sans-serif" font-size="14" lengthAdjust="spacing" textLength="79" x="619.5" y="955.5801">void pause()</text><ellipse cx="610.5" cy="968.9609" fill="#84BE84" rx="3" ry="3" style="stroke:#038048;stroke-width:1.0;"/><text fill="#000000" font-family="sans-serif" font-size="14" lengthAdjust="spacing" textLength="87" x="619.5" y="973.1895">void resume()</text></g><!--MD5=[0667adc060a9a03826342f4648d7da31]
class SpotifyAPI--><g id="elem_SpotifyAPI"><rect codeLine="75" fill="#F1F1F1" height="100.8281" id="SpotifyAPI" rx="2.5" ry="2.5" style="stroke:#181818;stroke-width:0.5;" width="183" x="705.5" y="643"/><ellipse cx="760.75" cy="659" fill="#ADD1B2" rx="11" ry="11" style="stroke:#181818;stroke-width:1.0;"/><path d="M763.5156,654.875 Q763.6719,654.6563 763.8594,654.5469 Q764.0469,654.4375 764.2656,654.4375 Q764.6406,654.4375 764.875,654.7031 Q765.1094,654.9531 765.1094,655.5625 L765.1094,657.0156 Q765.1094,657.625 764.875,657.8906 Q764.6406,658.1563 764.2656,658.1563 Q763.9219,658.1563 763.7188,657.9531 Q763.5156,657.7656 763.4063,657.25 Q763.3594,656.8906 763.1719,656.7031 Q762.8438,656.3281 762.2344,656.1094 Q761.625,655.8906 761,655.8906 Q760.2344,655.8906 759.5938,656.2188 Q758.9688,656.5469 758.4688,657.2969 Q757.9844,658.0469 757.9844,659.0781 L757.9844,660.1719 Q757.9844,661.4063 758.875,662.2344 Q759.7656,663.0469 761.3594,663.0469 Q762.2969,663.0469 762.9531,662.7969 Q763.3438,662.6406 763.7656,662.2031 Q764.0313,661.9375 764.1719,661.8594 Q764.3281,661.7813 764.5313,661.7813 Q764.8594,661.7813 765.1094,662.0469 Q765.375,662.2969 765.375,662.6406 Q765.375,662.9844 765.0313,663.3906 Q764.5313,663.9688 763.7344,664.2969 Q762.6563,664.75 761.3594,664.75 Q759.8438,664.75 758.6406,664.125 Q757.6563,663.625 756.9688,662.5625 Q756.2813,661.4844 756.2813,660.2031 L756.2813,659.0469 Q756.2813,657.7188 756.8906,656.5781 Q757.5156,655.4219 758.6094,654.8125 Q759.7031,654.1875 760.9375,654.1875 Q761.6719,654.1875 762.3125,654.3594 Q762.9688,654.5156 763.5156,654.875 Z " fill="#000000"/><text fill="#000000" font-family="sans-serif" font-size="14" lengthAdjust="spacing" textLength="64" x="781.25" y="664.7285">SpotifyAPI</text><line style="stroke:#181818;stroke-width:0.5;" x1="706.5" x2="887.5" y1="675" y2="675"/><line style="stroke:#181818;stroke-width:0.5;" x1="706.5" x2="887.5" y1="683" y2="683"/><ellipse cx="716.5" cy="697.3047" fill="#84BE84" rx="3" ry="3" style="stroke:#038048;stroke-width:1.0;"/><text fill="#000000" font-family="sans-serif" font-size="14" lengthAdjust="spacing" textLength="83" x="725.5" y="701.5332">void search()</text><ellipse cx="716.5" cy="714.9141" fill="#84BE84" rx="3" ry="3" style="stroke:#038048;stroke-width:1.0;"/><text fill="#000000" font-family="sans-serif" font-size="14" lengthAdjust="spacing" textLength="157" x="725.5" y="719.1426">void addSongToQueue()</text><ellipse cx="716.5" cy="732.5234" fill="#84BE84" rx="3" ry="3" style="stroke:#038048;stroke-width:1.0;"/><text fill="#000000" font-family="sans-serif" font-size="14" lengthAdjust="spacing" textLength="114" x="725.5" y="736.752">void clearQueue()</text></g><!--MD5=[e94ca03e4c28821d7966b69a47f39727]
class YoutubeAPI--><g id="elem_YoutubeAPI"><rect codeLine="81" fill="#F1F1F1" height="171.2656" id="YoutubeAPI" rx="2.5" ry="2.5" style="stroke:#181818;stroke-width:0.5;" width="168" x="413" y="608"/><ellipse cx="455.9" cy="624" fill="#ADD1B2" rx="11" ry="11" style="stroke:#181818;stroke-width:1.0;"/><path d="M458.6656,619.875 Q458.8219,619.6563 459.0094,619.5469 Q459.1969,619.4375 459.4156,619.4375 Q459.7906,619.4375 460.025,619.7031 Q460.2594,619.9531 460.2594,620.5625 L460.2594,622.0156 Q460.2594,622.625 460.025,622.8906 Q459.7906,623.1563 459.4156,623.1563 Q459.0719,623.1563 458.8688,622.9531 Q458.6656,622.7656 458.5563,622.25 Q458.5094,621.8906 458.3219,621.7031 Q457.9938,621.3281 457.3844,621.1094 Q456.775,620.8906 456.15,620.8906 Q455.3844,620.8906 454.7438,621.2188 Q454.1188,621.5469 453.6188,622.2969 Q453.1344,623.0469 453.1344,624.0781 L453.1344,625.1719 Q453.1344,626.4063 454.025,627.2344 Q454.9156,628.0469 456.5094,628.0469 Q457.4469,628.0469 458.1031,627.7969 Q458.4938,627.6406 458.9156,627.2031 Q459.1813,626.9375 459.3219,626.8594 Q459.4781,626.7813 459.6813,626.7813 Q460.0094,626.7813 460.2594,627.0469 Q460.525,627.2969 460.525,627.6406 Q460.525,627.9844 460.1813,628.3906 Q459.6813,628.9688 458.8844,629.2969 Q457.8063,629.75 456.5094,629.75 Q454.9938,629.75 453.7906,629.125 Q452.8063,628.625 452.1188,627.5625 Q451.4313,626.4844 451.4313,625.2031 L451.4313,624.0469 Q451.4313,622.7188 452.0406,621.5781 Q452.6656,620.4219 453.7594,619.8125 Q454.8531,619.1875 456.0875,619.1875 Q456.8219,619.1875 457.4625,619.3594 Q458.1188,619.5156 458.6656,619.875 Z " fill="#000000"/><text fill="#000000" font-family="sans-serif" font-size="14" lengthAdjust="spacing" textLength="74" x="476.1" y="629.7285">YoutubeAPI</text><line style="stroke:#181818;stroke-width:0.5;" x1="414" x2="580" y1="640" y2="640"/><line style="stroke:#181818;stroke-width:0.5;" x1="414" x2="580" y1="648" y2="648"/><ellipse cx="424" cy="662.3047" fill="#84BE84" rx="3" ry="3" style="stroke:#038048;stroke-width:1.0;"/><text fill="#000000" font-family="sans-serif" font-size="14" lengthAdjust="spacing" textLength="142" x="433" y="666.5332">void searchIndividual()</text><rect fill="#F24D5C" height="6" style="stroke:#C82930;stroke-width:1.0;" width="6" x="421" y="676.9141"/><text fill="#000000" font-family="sans-serif" font-size="14" lengthAdjust="spacing" textLength="97" x="433" y="684.1426">File download()</text><rect fill="#F24D5C" height="6" style="stroke:#C82930;stroke-width:1.0;" width="6" x="421" y="694.5234"/><text fill="#000000" font-family="sans-serif" font-size="14" lengthAdjust="spacing" textLength="112" x="433" y="701.752">void playFile(File)</text><ellipse cx="424" cy="715.1328" fill="#84BE84" rx="3" ry="3" style="stroke:#038048;stroke-width:1.0;"/><text fill="#000000" font-family="sans-serif" font-size="14" lengthAdjust="spacing" textLength="127" x="433" y="719.3613">void searchPlaylist()</text><ellipse cx="424" cy="732.7422" fill="#84BE84" rx="3" ry="3" style="stroke:#038048;stroke-width:1.0;"/><text fill="#000000" font-family="sans-serif" font-size="14" lengthAdjust="spacing" textLength="110" x="433" y="736.9707">void playPlaylist()</text><rect fill="#F24D5C" height="6" style="stroke:#C82930;stroke-width:1.0;" width="6" x="421" y="747.3516"/><text fill="#000000" font-family="sans-serif" font-size="14" lengthAdjust="spacing" textLength="124" x="433" y="754.5801">void addToQueue()</text><ellipse cx="424" cy="767.9609" fill="#84BE84" rx="3" ry="3" style="stroke:#038048;stroke-width:1.0;"/><text fill="#000000" font-family="sans-serif" font-size="14" lengthAdjust="spacing" textLength="114" x="433" y="772.1895">void clearQueue()</text></g><!--MD5=[cee3ed3aa55ea5c9c1f40663864872de]
class ConvertMp4ToSound--><g id="elem_ConvertMp4ToSound"><rect codeLine="91" fill="#F1F1F1" height="65.6094" id="ConvertMp4ToSound" rx="2.5" ry="2.5" style="stroke:#181818;stroke-width:0.5;" width="176" x="393" y="861.5"/><ellipse cx="412.05" cy="877.5" fill="#ADD1B2" rx="11" ry="11" style="stroke:#181818;stroke-width:1.0;"/><path d="M414.8156,873.375 Q414.9719,873.1563 415.1594,873.0469 Q415.3469,872.9375 415.5656,872.9375 Q415.9406,872.9375 416.175,873.2031 Q416.4094,873.4531 416.4094,874.0625 L416.4094,875.5156 Q416.4094,876.125 416.175,876.3906 Q415.9406,876.6563 415.5656,876.6563 Q415.2219,876.6563 415.0188,876.4531 Q414.8156,876.2656 414.7063,875.75 Q414.6594,875.3906 414.4719,875.2031 Q414.1438,874.8281 413.5344,874.6094 Q412.925,874.3906 412.3,874.3906 Q411.5344,874.3906 410.8938,874.7188 Q410.2688,875.0469 409.7688,875.7969 Q409.2844,876.5469 409.2844,877.5781 L409.2844,878.6719 Q409.2844,879.9063 410.175,880.7344 Q411.0656,881.5469 412.6594,881.5469 Q413.5969,881.5469 414.2531,881.2969 Q414.6438,881.1406 415.0656,880.7031 Q415.3313,880.4375 415.4719,880.3594 Q415.6281,880.2813 415.8313,880.2813 Q416.1594,880.2813 416.4094,880.5469 Q416.675,880.7969 416.675,881.1406 Q416.675,881.4844 416.3313,881.8906 Q415.8313,882.4688 415.0344,882.7969 Q413.9563,883.25 412.6594,883.25 Q411.1438,883.25 409.9406,882.625 Q408.9563,882.125 408.2688,881.0625 Q407.5813,879.9844 407.5813,878.7031 L407.5813,877.5469 Q407.5813,876.2188 408.1906,875.0781 Q408.8156,873.9219 409.9094,873.3125 Q411.0031,872.6875 412.2375,872.6875 Q412.9719,872.6875 413.6125,872.8594 Q414.2688,873.0156 414.8156,873.375 Z " fill="#000000"/><text fill="#000000" font-family="sans-serif" font-size="14" lengthAdjust="spacing" textLength="135" x="426.95" y="883.2285">ConvertMp4ToSound</text><line style="stroke:#181818;stroke-width:0.5;" x1="394" x2="568" y1="893.5" y2="893.5"/><line style="stroke:#181818;stroke-width:0.5;" x1="394" x2="568" y1="901.5" y2="901.5"/><ellipse cx="404" cy="915.8047" fill="#84BE84" rx="3" ry="3" style="stroke:#038048;stroke-width:1.0;"/><text fill="#000000" font-family="sans-serif" font-size="14" lengthAdjust="spacing" textLength="150" x="413" y="920.0332">void ffmpegMp4toWav()</text></g><!--MD5=[11056a3cfd021ff99117b323ec8994d8]
class Vosk--><g id="elem_Vosk"><rect codeLine="103" fill="#F1F1F1" height="65.6094" id="Vosk" rx="2.5" ry="2.5" style="stroke:#181818;stroke-width:0.5;" width="167" x="363.5" y="503.5"/><ellipse cx="427.25" cy="519.5" fill="#ADD1B2" rx="11" ry="11" style="stroke:#181818;stroke-width:1.0;"/><path d="M430.0156,515.375 Q430.1719,515.1563 430.3594,515.0469 Q430.5469,514.9375 430.7656,514.9375 Q431.1406,514.9375 431.375,515.2031 Q431.6094,515.4531 431.6094,516.0625 L431.6094,517.5156 Q431.6094,518.125 431.375,518.3906 Q431.1406,518.6563 430.7656,518.6563 Q430.4219,518.6563 430.2188,518.4531 Q430.0156,518.2656 429.9063,517.75 Q429.8594,517.3906 429.6719,517.2031 Q429.3438,516.8281 428.7344,516.6094 Q428.125,516.3906 427.5,516.3906 Q426.7344,516.3906 426.0938,516.7188 Q425.4688,517.0469 424.9688,517.7969 Q424.4844,518.5469 424.4844,519.5781 L424.4844,520.6719 Q424.4844,521.9063 425.375,522.7344 Q426.2656,523.5469 427.8594,523.5469 Q428.7969,523.5469 429.4531,523.2969 Q429.8438,523.1406 430.2656,522.7031 Q430.5313,522.4375 430.6719,522.3594 Q430.8281,522.2813 431.0313,522.2813 Q431.3594,522.2813 431.6094,522.5469 Q431.875,522.7969 431.875,523.1406 Q431.875,523.4844 431.5313,523.8906 Q431.0313,524.4688 430.2344,524.7969 Q429.1563,525.25 427.8594,525.25 Q426.3438,525.25 425.1406,524.625 Q424.1563,524.125 423.4688,523.0625 Q422.7813,521.9844 422.7813,520.7031 L422.7813,519.5469 Q422.7813,518.2188 423.3906,517.0781 Q424.0156,515.9219 425.1094,515.3125 Q426.2031,514.6875 427.4375,514.6875 Q428.1719,514.6875 428.8125,514.8594 Q429.4688,515.0156 430.0156,515.375 Z " fill="#000000"/><text fill="#000000" font-family="sans-serif" font-size="14" lengthAdjust="spacing" textLength="31" x="447.75" y="525.2285">Vosk</text><line style="stroke:#181818;stroke-width:0.5;" x1="364.5" x2="529.5" y1="535.5" y2="535.5"/><line style="stroke:#181818;stroke-width:0.5;" x1="364.5" x2="529.5" y1="543.5" y2="543.5"/><ellipse cx="374.5" cy="557.8047" fill="#84BE84" rx="3" ry="3" style="stroke:#038048;stroke-width:1.0;"/><text fill="#000000" font-family="sans-serif" font-size="14" lengthAdjust="spacing" textLength="141" x="383.5" y="562.0332">String speechToText()</text></g><!--MD5=[c60af77fe5573b84a4aa4bce89659574]
class Server--><g id="elem_Server"><rect codeLine="114" fill="#F1F1F1" height="83.2188" id="Server" rx="2.5" ry="2.5" style="stroke:#181818;stroke-width:0.5;" width="195" x="646.5" y="16"/><ellipse cx="718.75" cy="32" fill="#ADD1B2" rx="11" ry="11" style="stroke:#181818;stroke-width:1.0;"/><path d="M721.5156,27.875 Q721.6719,27.6563 721.8594,27.5469 Q722.0469,27.4375 722.2656,27.4375 Q722.6406,27.4375 722.875,27.7031 Q723.1094,27.9531 723.1094,28.5625 L723.1094,30.0156 Q723.1094,30.625 722.875,30.8906 Q722.6406,31.1563 722.2656,31.1563 Q721.9219,31.1563 721.7188,30.9531 Q721.5156,30.7656 721.4063,30.25 Q721.3594,29.8906 721.1719,29.7031 Q720.8438,29.3281 720.2344,29.1094 Q719.625,28.8906 719,28.8906 Q718.2344,28.8906 717.5938,29.2188 Q716.9688,29.5469 716.4688,30.2969 Q715.9844,31.0469 715.9844,32.0781 L715.9844,33.1719 Q715.9844,34.4063 716.875,35.2344 Q717.7656,36.0469 719.3594,36.0469 Q720.2969,36.0469 720.9531,35.7969 Q721.3438,35.6406 721.7656,35.2031 Q722.0313,34.9375 722.1719,34.8594 Q722.3281,34.7813 722.5313,34.7813 Q722.8594,34.7813 723.1094,35.0469 Q723.375,35.2969 723.375,35.6406 Q723.375,35.9844 723.0313,36.3906 Q722.5313,36.9688 721.7344,37.2969 Q720.6563,37.75 719.3594,37.75 Q717.8438,37.75 716.6406,37.125 Q715.6563,36.625 714.9688,35.5625 Q714.2813,34.4844 714.2813,33.2031 L714.2813,32.0469 Q714.2813,30.7188 714.8906,29.5781 Q715.5156,28.4219 716.6094,27.8125 Q717.7031,27.1875 718.9375,27.1875 Q719.6719,27.1875 720.3125,27.3594 Q720.9688,27.5156 721.5156,27.875 Z " fill="#000000"/><text fill="#000000" font-family="sans-serif" font-size="14" lengthAdjust="spacing" textLength="42" x="739.25" y="37.7285">Server</text><line style="stroke:#181818;stroke-width:0.5;" x1="647.5" x2="840.5" y1="48" y2="48"/><line style="stroke:#181818;stroke-width:0.5;" x1="647.5" x2="840.5" y1="56" y2="56"/><rect fill="#F24D5C" height="6" style="stroke:#C82930;stroke-width:1.0;" width="6" x="654.5" y="67.3047"/><text fill="#000000" font-family="sans-serif" font-size="14" lengthAdjust="spacing" textLength="169" x="666.5" y="74.5332">Socket connectNewClient()</text><rect fill="#F24D5C" height="6" style="stroke:#C82930;stroke-width:1.0;" width="6" x="654.5" y="84.9141"/><text fill="#000000" font-family="sans-serif" font-size="14" lengthAdjust="spacing" textLength="159" x="666.5" y="92.1426">boolean authorizeClient()</text></g><!--MD5=[847fc839c78cd68cdbea65b88e602834]
class Output--><g id="elem_Output"><rect codeLine="127" fill="#F1F1F1" height="83.2188" id="Output" rx="2.5" ry="2.5" style="stroke:#181818;stroke-width:0.5;" width="196" x="95" y="155.5"/><ellipse cx="167.25" cy="171.5" fill="#ADD1B2" rx="11" ry="11" style="stroke:#181818;stroke-width:1.0;"/><path d="M170.0156,167.375 Q170.1719,167.1563 170.3594,167.0469 Q170.5469,166.9375 170.7656,166.9375 Q171.1406,166.9375 171.375,167.2031 Q171.6094,167.4531 171.6094,168.0625 L171.6094,169.5156 Q171.6094,170.125 171.375,170.3906 Q171.1406,170.6563 170.7656,170.6563 Q170.4219,170.6563 170.2188,170.4531 Q170.0156,170.2656 169.9063,169.75 Q169.8594,169.3906 169.6719,169.2031 Q169.3438,168.8281 168.7344,168.6094 Q168.125,168.3906 167.5,168.3906 Q166.7344,168.3906 166.0938,168.7188 Q165.4688,169.0469 164.9688,169.7969 Q164.4844,170.5469 164.4844,171.5781 L164.4844,172.6719 Q164.4844,173.9063 165.375,174.7344 Q166.2656,175.5469 167.8594,175.5469 Q168.7969,175.5469 169.4531,175.2969 Q169.8438,175.1406 170.2656,174.7031 Q170.5313,174.4375 170.6719,174.3594 Q170.8281,174.2813 171.0313,174.2813 Q171.3594,174.2813 171.6094,174.5469 Q171.875,174.7969 171.875,175.1406 Q171.875,175.4844 171.5313,175.8906 Q171.0313,176.4688 170.2344,176.7969 Q169.1563,177.25 167.8594,177.25 Q166.3438,177.25 165.1406,176.625 Q164.1563,176.125 163.4688,175.0625 Q162.7813,173.9844 162.7813,172.7031 L162.7813,171.5469 Q162.7813,170.2188 163.3906,169.0781 Q164.0156,167.9219 165.1094,167.3125 Q166.2031,166.6875 167.4375,166.6875 Q168.1719,166.6875 168.8125,166.8594 Q169.4688,167.0156 170.0156,167.375 Z " fill="#000000"/><text fill="#000000" font-family="sans-serif" font-size="14" lengthAdjust="spacing" textLength="43" x="187.75" y="177.2285">Output</text><line style="stroke:#181818;stroke-width:0.5;" x1="96" x2="290" y1="187.5" y2="187.5"/><rect fill="none" height="6" style="stroke:#C82930;stroke-width:1.0;" width="6" x="103" y="198.8047"/><text fill="#000000" font-family="sans-serif" font-size="14" lengthAdjust="spacing" textLength="166" x="115" y="206.0332">ImageOutput imageOutput</text><rect fill="none" height="6" style="stroke:#C82930;stroke-width:1.0;" width="6" x="103" y="216.4141"/><text fill="#000000" font-family="sans-serif" font-size="14" lengthAdjust="spacing" textLength="170" x="115" y="223.6426">SoundOutput soundOutput</text><line style="stroke:#181818;stroke-width:0.5;" x1="96" x2="290" y1="230.7188" y2="230.7188"/></g><!--MD5=[90a736f025de2eeadd40fe9d9df68875]
class ImageOutput--><g id="elem_ImageOutput"><rect codeLine="135" fill="#F1F1F1" height="48" id="ImageOutput" rx="2.5" ry="2.5" style="stroke:#181818;stroke-width:0.5;" width="113" x="33.5" y="295"/><ellipse cx="48.5" cy="311" fill="#ADD1B2" rx="11" ry="11" style="stroke:#181818;stroke-width:1.0;"/><path d="M51.2656,306.875 Q51.4219,306.6563 51.6094,306.5469 Q51.7969,306.4375 52.0156,306.4375 Q52.3906,306.4375 52.625,306.7031 Q52.8594,306.9531 52.8594,307.5625 L52.8594,309.0156 Q52.8594,309.625 52.625,309.8906 Q52.3906,310.1563 52.0156,310.1563 Q51.6719,310.1563 51.4688,309.9531 Q51.2656,309.7656 51.1563,309.25 Q51.1094,308.8906 50.9219,308.7031 Q50.5938,308.3281 49.9844,308.1094 Q49.375,307.8906 48.75,307.8906 Q47.9844,307.8906 47.3438,308.2188 Q46.7188,308.5469 46.2188,309.2969 Q45.7344,310.0469 45.7344,311.0781 L45.7344,312.1719 Q45.7344,313.4063 46.625,314.2344 Q47.5156,315.0469 49.1094,315.0469 Q50.0469,315.0469 50.7031,314.7969 Q51.0938,314.6406 51.5156,314.2031 Q51.7813,313.9375 51.9219,313.8594 Q52.0781,313.7813 52.2813,313.7813 Q52.6094,313.7813 52.8594,314.0469 Q53.125,314.2969 53.125,314.6406 Q53.125,314.9844 52.7813,315.3906 Q52.2813,315.9688 51.4844,316.2969 Q50.4063,316.75 49.1094,316.75 Q47.5938,316.75 46.3906,316.125 Q45.4063,315.625 44.7188,314.5625 Q44.0313,313.4844 44.0313,312.2031 L44.0313,311.0469 Q44.0313,309.7188 44.6406,308.5781 Q45.2656,307.4219 46.3594,306.8125 Q47.4531,306.1875 48.6875,306.1875 Q49.4219,306.1875 50.0625,306.3594 Q50.7188,306.5156 51.2656,306.875 Z " fill="#000000"/><text fill="#000000" font-family="sans-serif" font-size="14" lengthAdjust="spacing" textLength="81" x="62.5" y="316.7285">ImageOutput</text><line style="stroke:#181818;stroke-width:0.5;" x1="34.5" x2="145.5" y1="327" y2="327"/><line style="stroke:#181818;stroke-width:0.5;" x1="34.5" x2="145.5" y1="335" y2="335"/></g><!--MD5=[a80627d6f9d351f194770b374bd3fdb0]
class textToExpression--><g id="elem_textToExpression"><rect codeLine="143" fill="#F1F1F1" height="48" id="textToExpression" rx="2.5" ry="2.5" style="stroke:#181818;stroke-width:0.5;" width="140" x="7" y="512.5"/><ellipse cx="22" cy="528.5" fill="#ADD1B2" rx="11" ry="11" style="stroke:#181818;stroke-width:1.0;"/><path d="M24.7656,524.375 Q24.9219,524.1563 25.1094,524.0469 Q25.2969,523.9375 25.5156,523.9375 Q25.8906,523.9375 26.125,524.2031 Q26.3594,524.4531 26.3594,525.0625 L26.3594,526.5156 Q26.3594,527.125 26.125,527.3906 Q25.8906,527.6563 25.5156,527.6563 Q25.1719,527.6563 24.9688,527.4531 Q24.7656,527.2656 24.6563,526.75 Q24.6094,526.3906 24.4219,526.2031 Q24.0938,525.8281 23.4844,525.6094 Q22.875,525.3906 22.25,525.3906 Q21.4844,525.3906 20.8438,525.7188 Q20.2188,526.0469 19.7188,526.7969 Q19.2344,527.5469 19.2344,528.5781 L19.2344,529.6719 Q19.2344,530.9063 20.125,531.7344 Q21.0156,532.5469 22.6094,532.5469 Q23.5469,532.5469 24.2031,532.2969 Q24.5938,532.1406 25.0156,531.7031 Q25.2813,531.4375 25.4219,531.3594 Q25.5781,531.2813 25.7813,531.2813 Q26.1094,531.2813 26.3594,531.5469 Q26.625,531.7969 26.625,532.1406 Q26.625,532.4844 26.2813,532.8906 Q25.7813,533.4688 24.9844,533.7969 Q23.9063,534.25 22.6094,534.25 Q21.0938,534.25 19.8906,533.625 Q18.9063,533.125 18.2188,532.0625 Q17.5313,530.9844 17.5313,529.7031 L17.5313,528.5469 Q17.5313,527.2188 18.1406,526.0781 Q18.7656,524.9219 19.8594,524.3125 Q20.9531,523.6875 22.1875,523.6875 Q22.9219,523.6875 23.5625,523.8594 Q24.2188,524.0156 24.7656,524.375 Z " fill="#000000"/><text fill="#000000" font-family="sans-serif" font-size="14" lengthAdjust="spacing" textLength="108" x="36" y="534.2285">textToExpression</text><line style="stroke:#181818;stroke-width:0.5;" x1="8" x2="146" y1="544.5" y2="544.5"/><line style="stroke:#181818;stroke-width:0.5;" x1="8" x2="146" y1="552.5" y2="552.5"/></g><!--MD5=[4fa62bfc67085f0a1bc2c5d84ff4204d]
class MotionMaker--><g id="elem_MotionMaker"><rect codeLine="146" fill="#F1F1F1" height="48" id="MotionMaker" rx="2.5" ry="2.5" style="stroke:#181818;stroke-width:0.5;" width="113" x="27.5" y="399.5"/><ellipse cx="42.5" cy="415.5" fill="#ADD1B2" rx="11" ry="11" style="stroke:#181818;stroke-width:1.0;"/><path d="M45.2656,411.375 Q45.4219,411.1563 45.6094,411.0469 Q45.7969,410.9375 46.0156,410.9375 Q46.3906,410.9375 46.625,411.2031 Q46.8594,411.4531 46.8594,412.0625 L46.8594,413.5156 Q46.8594,414.125 46.625,414.3906 Q46.3906,414.6563 46.0156,414.6563 Q45.6719,414.6563 45.4688,414.4531 Q45.2656,414.2656 45.1563,413.75 Q45.1094,413.3906 44.9219,413.2031 Q44.5938,412.8281 43.9844,412.6094 Q43.375,412.3906 42.75,412.3906 Q41.9844,412.3906 41.3438,412.7188 Q40.7188,413.0469 40.2188,413.7969 Q39.7344,414.5469 39.7344,415.5781 L39.7344,416.6719 Q39.7344,417.9063 40.625,418.7344 Q41.5156,419.5469 43.1094,419.5469 Q44.0469,419.5469 44.7031,419.2969 Q45.0938,419.1406 45.5156,418.7031 Q45.7813,418.4375 45.9219,418.3594 Q46.0781,418.2813 46.2813,418.2813 Q46.6094,418.2813 46.8594,418.5469 Q47.125,418.7969 47.125,419.1406 Q47.125,419.4844 46.7813,419.8906 Q46.2813,420.4688 45.4844,420.7969 Q44.4063,421.25 43.1094,421.25 Q41.5938,421.25 40.3906,420.625 Q39.4063,420.125 38.7188,419.0625 Q38.0313,417.9844 38.0313,416.7031 L38.0313,415.5469 Q38.0313,414.2188 38.6406,413.0781 Q39.2656,411.9219 40.3594,411.3125 Q41.4531,410.6875 42.6875,410.6875 Q43.4219,410.6875 44.0625,410.8594 Q44.7188,411.0156 45.2656,411.375 Z " fill="#000000"/><text fill="#000000" font-family="sans-serif" font-size="14" lengthAdjust="spacing" textLength="81" x="56.5" y="421.2285">MotionMaker</text><line style="stroke:#181818;stroke-width:0.5;" x1="28.5" x2="139.5" y1="431.5" y2="431.5"/><line style="stroke:#181818;stroke-width:0.5;" x1="28.5" x2="139.5" y1="439.5" y2="439.5"/></g><!--MD5=[0c5aaed22fe877b39f1ffaa8effdc38e]
reverse link ServerUtils to SoundInput--><g id="link_ServerUtils_SoundInput"><path codeLine="29" d="M534.25,104.13 C534.25,104.13 534.25,381.91 534.25,381.91 " fill="none" id="ServerUtils-backto-SoundInput" style="stroke:#181818;stroke-width:1.0;"/><polygon fill="#181818" points="534.25,99.13,530.25,108.13,534.25,104.13,538.25,108.13,534.25,99.13" style="stroke:#181818;stroke-width:1.0;"/></g><!--MD5=[f0df8c959b7cdc9b62e03d338d0520b7]
reverse link SoundInput to Chat--><g id="link_SoundInput_Chat"><path codeLine="30" d="M617.75,470.26 C617.75,470.26 617.75,494.92 617.75,494.92 " fill="none" id="SoundInput-backto-Chat" style="stroke:#181818;stroke-width:1.0;"/><polygon fill="#181818" points="617.75,465.26,613.75,474.26,617.75,470.26,621.75,474.26,617.75,465.26" style="stroke:#181818;stroke-width:1.0;"/></g><!--MD5=[15e4ca589ce690f196129017fe857522]
reverse link SoundInput to Commands--><g id="link_SoundInput_Commands"><path codeLine="31" d="M680.02,445 C680.02,445 746,445 746,445 C746,445 746,477.26 746,503.47 " fill="none" id="SoundInput-backto-Commands" style="stroke:#181818;stroke-width:1.0;"/><polygon fill="#181818" points="675.02,445,684.02,449,680.02,445,684.02,441,675.02,445" style="stroke:#181818;stroke-width:1.0;"/></g><!--MD5=[cac3192aaea80fd27beea86bdc87bc6f]
reverse link Commands to Weather--><g id="link_Commands_Weather"><path codeLine="41" d="M893.6,537 C893.6,537 1009.67,537 1009.67,537 C1009.67,537 1009.67,625.49 1009.67,669.39 " fill="none" id="Commands-backto-Weather" style="stroke:#181818;stroke-width:1.0;"/><polygon fill="#181818" points="888.6,537,897.6,541,893.6,537,897.6,533,888.6,537" style="stroke:#181818;stroke-width:1.0;"/></g><!--MD5=[7c15d27061d89a2a1ad8cb7a0ca7fbb7]
reverse link Weather to AccuWeatherAPI--><g id="link_Weather_AccuWeatherAPI"><path codeLine="42" d="M1002,722.75 C1002,722.75 1002,843.98 1002,843.98 " fill="none" id="Weather-backto-AccuWeatherAPI" style="stroke:#181818;stroke-width:1.0;"/><polygon fill="#181818" points="1002,717.75,998,726.75,1002,722.75,1006,726.75,1002,717.75" style="stroke:#181818;stroke-width:1.0;"/></g><!--MD5=[bd7fae9cd43ff2c5cfa5b4bb6ed850a2]
link AccuWeatherAPI to SoundOutput--><g id="link_AccuWeatherAPI_SoundOutput"><path codeLine="43" d="M927,945.26 C927,985.14 927,1034 927,1034 C927,1034 318.17,1034 318.17,1034 " fill="none" id="AccuWeatherAPI-to-SoundOutput" style="stroke:#181818;stroke-width:1.0;"/><polygon fill="#181818" points="313.17,1034,322.17,1038,318.17,1034,322.17,1030,313.17,1034" style="stroke:#181818;stroke-width:1.0;"/></g><!--MD5=[051f66259ee8059d9d4e0ad99c1d71a1]
reverse link Commands to Notes--><g id="link_Commands_Notes"><path codeLine="59" d="M790,498.33 C790,498.33 790,256.07 790,256.07 " fill="none" id="Commands-backto-Notes" style="stroke:#181818;stroke-width:1.0;"/><polygon fill="#181818" points="790,503.33,794,494.33,790,498.33,786,494.33,790,503.33" style="stroke:#181818;stroke-width:1.0;"/></g><!--MD5=[ba4391d779a34eb270b832fd0890dc66]
reverse link Notes to WriteNote--><g id="link_Notes_WriteNote"><path codeLine="60" d="M686.5,261.21 C686.5,261.21 686.5,285.87 686.5,285.87 " fill="none" id="Notes-backto-WriteNote" style="stroke:#181818;stroke-width:1.0;"/><polygon fill="#181818" points="686.5,256.21,682.5,265.21,686.5,261.21,690.5,265.21,686.5,256.21" style="stroke:#181818;stroke-width:1.0;"/></g><!--MD5=[d4d661f6f226036f5c745b428aa68efc]
link WriteNote to SoundInput--><g id="link_WriteNote_SoundInput"><path codeLine="61" d="M627.25,352.06 C627.25,352.06 627.25,376.82 627.25,376.82 " fill="none" id="WriteNote-to-SoundInput" style="stroke:#181818;stroke-width:1.0;"/><polygon fill="#181818" points="627.25,381.82,631.25,372.82,627.25,376.82,623.25,372.82,627.25,381.82" style="stroke:#181818;stroke-width:1.0;"/></g><!--MD5=[851f2f40c0261d1da63148d992aea315]
reverse link Notes to ReadNote--><g id="link_Notes_ReadNote"><path codeLine="62" d="M605.46,248 C605.46,248 351,248 351,248 C351,248 351,339.65 351,390.49 " fill="none" id="Notes-backto-ReadNote" style="stroke:#181818;stroke-width:1.0;"/><polygon fill="#181818" points="610.46,248,601.46,244,605.46,248,601.46,252,610.46,248" style="stroke:#181818;stroke-width:1.0;"/></g><!--MD5=[f140c5493301117c4122a1df14bfec34]
link ReadNote to SoundOutput--><g id="link_ReadNote_SoundOutput"><path codeLine="63" d="M300,456.76 C300,456.76 300,1004.79 300,1004.79 " fill="none" id="ReadNote-to-SoundOutput" style="stroke:#181818;stroke-width:1.0;"/><polygon fill="#181818" points="300,1009.79,304.0257,1000.8015,300.0143,1004.79,296.0257,1000.7786,300,1009.79" style="stroke:#181818;stroke-width:1.0;"/></g><!--MD5=[c07df1e5adfb279037856cb38332fd88]
link Commands to YoutubeAPI--><g id="link_Commands_YoutubeAPI"><path codeLine="95" d="M809,569.57 C809,595.07 809,626 809,626 C809,626 586.02,626 586.02,626 " fill="none" id="Commands-to-YoutubeAPI" style="stroke:#181818;stroke-width:1.0;"/><polygon fill="#181818" points="581.02,626,590.02,630,586.02,626,590.02,622,581.02,626" style="stroke:#181818;stroke-width:1.0;"/></g><!--MD5=[a50ec5565370c8de0336dd76004f7d27]
link YoutubeAPI to MusicPlayer--><g id="link_YoutubeAPI_MusicPlayer"><path codeLine="96" d="M575,779.27 C575,809.45 575,836 575,836 C575,836 594.45,836 594.45,836 " fill="none" id="YoutubeAPI-to-MusicPlayer" style="stroke:#181818;stroke-width:1.0;"/><polygon fill="#181818" points="599.45,836,590.45,832,594.45,836,590.45,840,599.45,836" style="stroke:#181818;stroke-width:1.0;"/></g><!--MD5=[8d627450e0f8b9ae6a6941b88f142def]
link Commands to MusicPlayer--><g id="link_Commands_MusicPlayer"><path codeLine="97" d="M769.25,569.69 C769.25,581.99 769.25,593 769.25,593 C769.25,593 649.5,593 649.5,593 C649.5,593 649.5,803.91 649.5,803.91 " fill="none" id="Commands-to-MusicPlayer" style="stroke:#181818;stroke-width:1.0;"/><polygon fill="#181818" points="649.5,808.91,653.5,799.91,649.5,803.91,645.5,799.91,649.5,808.91" style="stroke:#181818;stroke-width:1.0;"/></g><!--MD5=[e792f9a298fc6f99c307eff1da2e62fb]
reverse link YoutubeAPI to SoundInput--><g id="link_YoutubeAPI_SoundInput"><path codeLine="98" d="M545.5,602.7 C545.5,602.7 545.5,465.27 545.5,465.27 " fill="none" id="YoutubeAPI-backto-SoundInput" style="stroke:#181818;stroke-width:1.0;"/><polygon fill="#181818" points="545.5,607.7,549.5,598.7,545.5,602.7,541.5,598.7,545.5,607.7" style="stroke:#181818;stroke-width:1.0;"/></g><!--MD5=[4abacbcda41da7a282c6f8e40510b371]
reverse link YoutubeAPI to ConvertMp4ToSound--><g id="link_YoutubeAPI_ConvertMp4ToSound"><path codeLine="99" d="M491,784.03 C491,784.03 491,861.33 491,861.33 " fill="none" id="YoutubeAPI-backto-ConvertMp4ToSound" style="stroke:#181818;stroke-width:1.0;"/><polygon fill="#181818" points="491,779.03,487,788.03,491,784.03,495,788.03,491,779.03" style="stroke:#181818;stroke-width:1.0;"/></g><!--MD5=[04a431bd0a803be77443957b242fc039]
link Commands to SpotifyAPI--><g id="link_Commands_SpotifyAPI"><path codeLine="101" d="M848.75,569.8 C848.75,569.8 848.75,637.93 848.75,637.93 " fill="none" id="Commands-to-SpotifyAPI" style="stroke:#181818;stroke-width:1.0;"/><polygon fill="#181818" points="848.75,642.93,852.75,633.93,848.75,637.93,844.75,633.93,848.75,642.93" style="stroke:#181818;stroke-width:1.0;"/></g><!--MD5=[2d14f45509836c2e6bc579b8d3270580]
reverse link SoundInput to Vosk--><g id="link_SoundInput_Vosk"><path codeLine="107" d="M509.75,470.26 C509.75,470.26 509.75,503.38 509.75,503.38 " fill="none" id="SoundInput-backto-Vosk" style="stroke:#181818;stroke-width:1.0;"/><polygon fill="#181818" points="509.75,465.26,505.75,474.26,509.75,470.26,513.75,474.26,509.75,465.26" style="stroke:#181818;stroke-width:1.0;"/></g><!--MD5=[5a615ae06c506fae01f241a38c558b60]
link ServerUtils to Server--><g id="link_ServerUtils_Server"><path codeLine="120" d="M616.09,58 C616.09,58 641.3,58 641.3,58 " fill="none" id="ServerUtils-to-Server" style="stroke:#181818;stroke-width:1.0;"/><polygon fill="#181818" points="646.3,58,637.3,54,641.3,58,637.3,62,646.3,58" style="stroke:#181818;stroke-width:1.0;"/></g><!--MD5=[cd32f07e60cd6a6df9dae7b3f8d31e36]
link ServerUtils to Client--><g id="link_ServerUtils_Client"><path codeLine="121" d="M595,99.02 C595,102.08 595,104 595,104 C595,104 866.82,104 866.82,104 " fill="none" id="ServerUtils-to-Client" style="stroke:#181818;stroke-width:1.0;"/><polygon fill="#181818" points="871.82,104,862.82,100,866.82,104,862.82,108,871.82,104" style="stroke:#181818;stroke-width:1.0;"/></g><!--MD5=[2d6699a82a48090b3197eb98f725b1bd]
reverse link Server to Weather--><g id="link_Server_Weather"><path codeLine="123" d="M833.5,104.18 C833.5,104.18 833.5,403 833.5,403 C833.5,403 1038.33,403 1038.33,403 C1038.33,403 1038.33,599.41 1038.33,669.23 " fill="none" id="Server-backto-Weather" style="stroke:#181818;stroke-width:1.0;"/><polygon fill="#181818" points="833.5,99.18,829.5,108.18,833.5,104.18,837.5,108.18,833.5,99.18" style="stroke:#181818;stroke-width:1.0;"/></g><!--MD5=[fe0071dc63f09c8e914ad370166d7544]
reverse link Server to Notes--><g id="link_Server_Notes"><path codeLine="124" d="M732,104.35 C732,104.35 732,137.9 732,137.9 " fill="none" id="Server-backto-Notes" style="stroke:#181818;stroke-width:1.0;"/><polygon fill="#181818" points="732,99.35,728,108.35,732,104.35,736,108.35,732,99.35" style="stroke:#181818;stroke-width:1.0;"/></g><!--MD5=[8040c4d11030ce463d831c8515f22776]
reverse link Server to MusicPlayer--><g id="link_Server_MusicPlayer"><path codeLine="125" d="M825.5,104.19 C825.5,104.19 825.5,424 825.5,424 C825.5,424 934.75,424 934.75,424 C934.75,424 934.75,827 934.75,827 C934.75,827 828.88,827 752.58,827 " fill="none" id="Server-backto-MusicPlayer" style="stroke:#181818;stroke-width:1.0;"/><polygon fill="#181818" points="825.5,99.19,821.5,108.19,825.5,104.19,829.5,108.19,825.5,99.19" style="stroke:#181818;stroke-width:1.0;"/></g><!--MD5=[a466c582d5558b8149bfce2939531fd8]
reverse link Output to SoundOutput--><g id="link_Output_SoundOutput"><path codeLine="138" d="M242,251.51 C242,251.51 242,1009.93 242,1009.93 " fill="none" id="Output-backto-SoundOutput" style="stroke:#181818;stroke-width:1.0;"/><polygon fill="#181818" points="242,238.51,238,244.51,242,250.51,246,244.51,242,238.51" style="stroke:#181818;stroke-width:1.0;"/></g><!--MD5=[c6ee0445de5f7334d522c789fb1bb9fc]
reverse link Output to ImageOutput--><g id="link_Output_ImageOutput"><path codeLine="139" d="M120.75,251.64 C120.75,251.64 120.75,294.96 120.75,294.96 " fill="none" id="Output-backto-ImageOutput" style="stroke:#181818;stroke-width:1.0;"/><polygon fill="#181818" points="120.75,238.64,116.75,244.64,120.75,250.64,124.75,244.64,120.75,238.64" style="stroke:#181818;stroke-width:1.0;"/></g><!--MD5=[3ab10a4ed997973048182b2208e42668]
reverse link ServerUtils to Output--><g id="link_ServerUtils_Output"><path codeLine="140" d="M469.5,104.35 C469.5,104.35 469.5,197 469.5,197 C469.5,197 370.74,197 291.26,197 " fill="none" id="ServerUtils-backto-Output" style="stroke:#181818;stroke-width:1.0;"/><polygon fill="#181818" points="469.5,99.35,465.5,108.35,469.5,104.35,473.5,108.35,469.5,99.35" style="stroke:#181818;stroke-width:1.0;"/></g><!--MD5=[12c569b13109240eee676e2f6cc7dd88]
link Server to Client--><g id="link_Server_Client"><path codeLine="141" d="M846.54,58 C846.54,58 866.61,58 866.61,58 " fill="none" id="Server-Client" style="stroke:#181818;stroke-width:1.0;"/><polygon fill="#181818" points="871.61,58,862.61,54,866.61,58,862.61,62,871.61,58" style="stroke:#181818;stroke-width:1.0;"/><polygon fill="#181818" points="841.54,58,850.54,62,846.54,58,850.54,54,841.54,58" style="stroke:#181818;stroke-width:1.0;"/></g><!--MD5=[f1d5a1c6e93918e2dcced465ce8c2e02]
reverse link ImageOutput to MotionMaker--><g id="link_ImageOutput_MotionMaker"><path codeLine="149" d="M87,348.24 C87,348.24 87,399.39 87,399.39 " fill="none" id="ImageOutput-backto-MotionMaker" style="stroke:#181818;stroke-width:1.0;"/><polygon fill="#181818" points="87,343.24,83,352.24,87,348.24,91,352.24,87,343.24" style="stroke:#181818;stroke-width:1.0;"/></g><!--MD5=[bcb6d8c127621a37827050ad95bcd905]
reverse link MotionMaker to textToExpression--><g id="link_MotionMaker_textToExpression"><path codeLine="150" d="M84,452.74 C84,452.74 84,512.3 84,512.3 " fill="none" id="MotionMaker-backto-textToExpression" style="stroke:#181818;stroke-width:1.0;"/><polygon fill="#181818" points="84,447.74,80,456.74,84,452.74,88,456.74,84,447.74" style="stroke:#181818;stroke-width:1.0;"/></g><!--MD5=[0cc8a31679ed8ee8eec6117b408f8f03]
@startuml

skinparam linetype ortho

skinparam nodesep 30
skinparam ranksep 30

class Client{
	- Socket connectToServer()
	- boolean authorize()
	- String loopWaitingForWakeUpWord()
}

class SoundInput {
	+ void listenWakeUpWord()
	+ String speechToText()
}

class Chat{
	+ void receiveText()
	+ void sendText()

}

class Commands{
	+ void hearCommand()
}


ServerUtils <- - SoundInput
SoundInput <- - Chat
SoundInput <- - Commands

class Weather
class AccuWeatherAPI {
	+ String sendWeatherData()
	- void fetchLocation()
	- void fetchWeatherData()
	
}

Commands <- - Weather
Weather <- - AccuWeatherAPI
AccuWeatherAPI - -> SoundOutput

class Notes{
	+ ArrayList<String> ListNotes()
	+ void addNote()
	+ void deleteNote()
	+ File selectNote()
}

class WriteNote{
	+ void appendToNote(File)
}
class ReadNote{
	+ void readNote()
}

Commands <- - Notes
Notes <- - WriteNote
WriteNote - -> SoundInput
Notes <- - ReadNote
ReadNote - -> SoundOutput


class MusicPlayer{
	+ void ffplay(File)
	+ void raiseVolume()
	+ void lowerVolume()
	+ void nextSong()
	+ void previousSong()
	+ void pause()
	+ void resume()
}
class SpotifyAPI{
	+ void search()
	+ void addSongToQueue()
	+ void clearQueue()
}

class YoutubeAPI{
	+ void searchIndividual()
	- File download()
	- void playFile(File)
	+ void searchPlaylist()
	+ void playPlaylist()
	- void addToQueue()
	+ void clearQueue()
}

class ConvertMp4ToSound {
	+ void ffmpegMp4toWav()
}

Commands - -> YoutubeAPI
YoutubeAPI - -> MusicPlayer
Commands - -> MusicPlayer
YoutubeAPI <- - SoundInput
YoutubeAPI <- - ConvertMp4ToSound

Commands - -> SpotifyAPI

class Vosk{
	+ String speechToText()
}

SoundInput <- - Vosk

class ServerUtils{
	+ String receivePacket()
	+ sendPacket(String)
}

class Server{
	- Socket connectNewClient()
	- boolean authorizeClient()

}

ServerUtils -> Server
ServerUtils -> Client

Server <- - Weather
Server <- - Notes
Server <- - MusicPlayer

class Output{
	- ImageOutput imageOutput
	- SoundOutput soundOutput
}

class SoundOutput{
}

class ImageOutput{
}

Output *- - SoundOutput
Output *- - ImageOutput
ServerUtils <- - Output
Server <-> Client

class textToExpression{
}

class MotionMaker{
}  

ImageOutput <- - MotionMaker
MotionMaker <- - textToExpression

@enduml

PlantUML version 1.2022.7(Mon Aug 22 18:01:30 WEST 2022)
(GPL source distribution)
Java Runtime: Java(TM) SE Runtime Environment
JVM: Java HotSpot(TM) 64-Bit Server VM
Default Encoding: UTF-8
Language: en
Country: GB
--></g></svg>